<svg width="542" height="309" viewBox="0 0 542 309" fill="none" xmlns="http://www.w3.org/2000/svg">
<g clip-path="url(#clip0)">
<path d="M-0.0970459 135.684L77.4437 213.541L192.153 192.181L114.612 114.323L-0.0970459 135.684Z" fill="#7FC94C"/>
<path d="M77.7816 213.471L94.4358 230.193L208.787 208.899L192.133 192.177L77.7816 213.471Z" fill="#F9F792"/>
<path d="M94.1139 230.278L171.832 308.314L286.542 286.953L208.823 208.918L94.1139 230.278Z" fill="#4CA0C9"/>
<path d="M114.173 114.32L191.714 192.177L345.172 209.723L267.631 131.866L114.173 114.32Z" fill="#7FC94C"/>
<path d="M191.708 192.17L208.362 208.893L263.031 215.143L340.75 293.179L385.348 298.278L307.629 220.243L361.818 226.439L345.164 209.716L191.708 192.17V192.17Z" fill="#F9F792"/>
<path d="M307.671 220.267L385.389 298.302L439.578 304.498L361.86 226.463L307.671 220.267Z" fill="#C9A14C"/>
<path d="M208.384 208.914L286.102 286.95L340.772 293.201L263.053 215.165L208.384 208.914Z" fill="#4CA0C9"/>
<path d="M359.741 226.488L437.46 304.524L541.785 272.737L464.067 194.701L359.741 226.488Z" fill="#C9A14C"/>
<path d="M265.53 131.893L343.071 209.75L447.396 177.964L369.856 100.106L265.53 131.893Z" fill="#7FC94C"/>
<path d="M343.065 209.744L359.719 226.466L464.045 194.68L447.39 177.957L343.065 209.744Z" fill="#F9F792"/>
<path d="M114.451 114.447L191.783 192.276L208.638 209.131L285.97 286.959L340.997 293.404L385.614 298.361L439.65 304.311L361.823 226.482L345.463 209.627L267.635 131.798L114.453 114.448L114.451 114.447Z" fill="black" fill-opacity="0.15217"/>
<path d="M364.799 66.4608C364.799 102.668 299.237 187.56 299.237 213.741C299.237 187.579 233.676 102.67 233.676 66.4608C233.676 30.2518 263.028 0.899216 299.237 0.899216C335.447 0.899216 364.799 30.2513 364.799 66.4608V66.4608Z" fill="url(#paint0_linear)" stroke="#A00000" stroke-width="2.17622" stroke-linecap="square" stroke-linejoin="round"/>
<path d="M299.242 87.6573C311.692 87.6573 321.785 77.5643 321.785 65.1139C321.785 52.6636 311.692 42.5706 299.242 42.5706C286.791 42.5706 276.698 52.6636 276.698 65.1139C276.698 77.5643 286.791 87.6573 299.242 87.6573Z" fill="#A00000"/>
<path d="M74.0728 155.606C73.1632 165.239 69.6079 172.763 63.4067 178.179C57.2056 183.553 48.958 186.24 38.6641 186.24C31.4707 186.24 25.1248 184.545 19.6265 181.155C14.1694 177.724 9.95264 172.866 6.97607 166.583C3.99951 160.299 2.44922 153.002 2.3252 144.692V136.259C2.3252 127.743 3.83415 120.239 6.85205 113.749C9.86995 107.258 14.1901 102.256 19.8125 98.7417C25.4762 95.2277 32.0081 93.4707 39.4082 93.4707C49.3714 93.4707 57.3916 96.1785 63.4688 101.594C69.5459 107.01 73.0806 114.658 74.0728 124.539H58.4458C57.7017 118.048 55.8 113.376 52.7407 110.524C49.7228 107.63 45.2786 106.183 39.4082 106.183C32.5869 106.183 27.3366 108.684 23.6572 113.687C20.0192 118.647 18.1589 125.944 18.0762 135.577V143.576C18.0762 153.333 19.8125 160.774 23.2852 165.9C26.7992 171.027 31.9255 173.59 38.6641 173.59C44.8239 173.59 49.4541 172.205 52.5547 169.435C55.6553 166.665 57.619 162.056 58.4458 155.606H74.0728ZM83.8706 150.832C83.8706 144.258 85.1729 138.347 87.7773 133.096C90.3818 127.805 94.0405 123.753 98.7534 120.942C103.466 118.089 108.882 116.663 115 116.663C124.054 116.663 131.392 119.578 137.015 125.407C142.678 131.236 145.738 138.967 146.192 148.599L146.254 152.134C146.254 158.748 144.973 164.66 142.41 169.869C139.888 175.078 136.25 179.109 131.496 181.961C126.783 184.814 121.326 186.24 115.125 186.24C105.657 186.24 98.0713 183.098 92.3662 176.814C86.7025 170.489 83.8706 162.076 83.8706 151.576V150.832ZM98.9395 152.134C98.9395 159.038 100.366 164.453 103.218 168.381C106.071 172.267 110.04 174.21 115.125 174.21C120.209 174.21 124.158 172.226 126.969 168.257C129.821 164.288 131.248 158.48 131.248 150.832C131.248 144.052 129.78 138.677 126.845 134.708C123.951 130.74 120.003 128.755 115 128.755C110.081 128.755 106.174 130.719 103.28 134.646C100.386 138.533 98.9395 144.362 98.9395 152.134ZM199.646 178.427C195.223 183.636 188.939 186.24 180.795 186.24C173.519 186.24 168 184.111 164.238 179.853C160.517 175.595 158.657 169.435 158.657 161.374V117.903H173.726V161.188C173.726 169.704 177.26 173.962 184.33 173.962C191.647 173.962 196.587 171.337 199.15 166.086V117.903H214.219V185H200.019L199.646 178.427ZM243.551 117.903L243.985 125.655C248.946 119.66 255.457 116.663 263.519 116.663C277.492 116.663 284.603 124.663 284.851 140.662V185H269.782V141.53C269.782 137.272 268.852 134.13 266.991 132.104C265.172 130.037 262.175 129.003 258 129.003C251.922 129.003 247.396 131.753 244.419 137.251V185H229.35V117.903H243.551ZM319.143 101.594V117.903H330.987V129.065H319.143V166.521C319.143 169.084 319.639 170.944 320.631 172.102C321.665 173.218 323.484 173.776 326.088 173.776C327.825 173.776 329.582 173.569 331.359 173.156V184.814C327.928 185.765 324.621 186.24 321.438 186.24C309.862 186.24 304.074 179.853 304.074 167.079V129.065H293.036V117.903H304.074V101.594H319.143ZM377.682 131.67C375.698 131.339 373.651 131.174 371.543 131.174C364.639 131.174 359.988 133.82 357.59 139.111V185H342.521V117.903H356.908L357.28 125.407C360.918 119.578 365.962 116.663 372.411 116.663C374.561 116.663 376.339 116.952 377.744 117.531L377.682 131.67ZM403.231 185H388.162V117.903H403.231V185ZM387.232 100.478C387.232 98.1629 387.955 96.2406 389.402 94.7109C390.891 93.1813 392.999 92.4165 395.728 92.4165C398.456 92.4165 400.564 93.1813 402.053 94.7109C403.541 96.2406 404.285 98.1629 404.285 100.478C404.285 102.752 403.541 104.653 402.053 106.183C400.564 107.671 398.456 108.416 395.728 108.416C392.999 108.416 390.891 107.671 389.402 106.183C387.955 104.653 387.232 102.752 387.232 100.478ZM449.244 186.24C439.694 186.24 431.942 183.243 425.989 177.249C420.077 171.213 417.122 163.193 417.122 153.188V151.328C417.122 144.63 418.403 138.657 420.966 133.406C423.571 128.115 427.209 124.001 431.88 121.066C436.552 118.131 441.761 116.663 447.507 116.663C456.644 116.663 463.692 119.578 468.653 125.407C473.656 131.236 476.157 139.483 476.157 150.149V156.227H432.314C432.769 161.766 434.609 166.148 437.833 169.373C441.099 172.598 445.192 174.21 450.112 174.21C457.016 174.21 462.638 171.419 466.979 165.838L475.103 173.59C472.415 177.6 468.819 180.721 464.312 182.954C459.848 185.145 454.825 186.24 449.244 186.24ZM447.445 128.755C443.311 128.755 439.963 130.202 437.399 133.096C434.878 135.99 433.265 140.021 432.562 145.188H461.274V144.072C460.943 139.029 459.6 135.225 457.243 132.662C454.887 130.058 451.621 128.755 447.445 128.755ZM525.518 166.769C525.518 164.081 524.402 162.035 522.169 160.629C519.978 159.224 516.32 157.984 511.193 156.909C506.067 155.834 501.788 154.47 498.357 152.816C490.833 149.178 487.071 143.907 487.071 137.003C487.071 131.215 489.51 126.378 494.388 122.492C499.266 118.606 505.468 116.663 512.992 116.663C521.012 116.663 527.482 118.647 532.401 122.616C537.362 126.585 539.843 131.732 539.843 138.057H524.774C524.774 135.163 523.699 132.765 521.549 130.864C519.4 128.921 516.547 127.949 512.992 127.949C509.684 127.949 506.977 128.714 504.868 130.244C502.801 131.773 501.768 133.82 501.768 136.383C501.768 138.698 502.739 140.496 504.682 141.778C506.625 143.059 510.553 144.362 516.464 145.685C522.376 146.966 527.006 148.516 530.355 150.335C533.745 152.113 536.246 154.263 537.858 156.785C539.512 159.306 540.339 162.366 540.339 165.962C540.339 171.998 537.838 176.897 532.835 180.659C527.833 184.38 521.281 186.24 513.178 186.24C507.679 186.24 502.78 185.248 498.481 183.264C494.181 181.279 490.833 178.551 488.435 175.078C486.037 171.605 484.838 167.864 484.838 163.854H499.473C499.68 167.409 501.023 170.159 503.504 172.102C505.984 174.003 509.271 174.954 513.364 174.954C517.333 174.954 520.35 174.21 522.417 172.722C524.485 171.192 525.518 169.208 525.518 166.769Z" fill="white"/>
</g>
<defs>
<linearGradient id="paint0_linear" x1="299.233" y1="-0.286699" x2="299.233" y2="185.007" gradientUnits="userSpaceOnUse">
<stop stop-color="#EF0000"/>
<stop offset="1" stop-color="#C80000"/>
</linearGradient>
<clipPath id="clip0">
<rect width="541.87" height="308.52" fill="white"/>
</clipPath>
</defs>
</svg>
